<svg xmlns="http://www.w3.org/2000/svg" viewBox="0 0 130 100"><path d="M72.7 32c0-3.4-3-3.9-5.7-3.9l-8.2-.1v14.5h3.4v-5.3H66c3.9 0 3 2.2 3.1 5.3h3.5v-2.8c0-1.9-.3-3.2-2.3-3.9 1.5-.5 2.4-2.1 2.4-3.8zm-6.1 2.4h-4.3v-3.2h4.4c1.1 0 2.2.2 2.2 1.6 0 1.3-1.2 1.6-2.3 1.6zM63 53.1H52l-4.4 4.8-4.3-4.8h-14v14.5H43l4.5-4.8 4.3 4.8h6.8v-4.9c4 0 10.3 1 10.3-4.9 0-3.5-2.6-4.7-5.9-4.7zM41.3 64.6h-8.5v-2.9h7.6v-3h-7.6v-2.6h8.7l3.8 4.2-4 4.3zm13.8 1.7l-5.3-5.9 5.3-5.7v11.6zm7.9-6.5h-4.4v-3.7h4.5c1.2 0 2.1.5 2.1 1.8s-1 1.9-2.2 1.9zm-6.6-28.6v-3.1H44.7v14.5h11.6v-3h-8.2v-2.9H56v-3h-7.9v-2.6l8.3.1zm69 19.2zm-40.9 6.7c0-3.4-3-3.9-5.7-3.9h-8.3v14.5H74v-5.3h3.7c2.3 0 3.1.4 3.1 2.9v2.4h3.5v-2.9c0-1.9-.4-3.2-2.3-3.9 1.7-.6 2.5-2.2 2.5-3.8zm-6.1 2.3h-4.3v-3.3h4.4c1.1 0 2.2.2 2.2 1.6 0 1.4-1.1 1.7-2.3 1.7zM42.2 42.6V28.1h-5.8L32.2 38l-4.6-9.9H22v13.8l-5.9-13.8H11L4.7 42.6h3.8l1.3-3.2H17l1.3 3.2h7.1V31.3l5 11.4h3.1l5-11.4v11.4h3.7zm-31.1-6.2l2.3-5.8 2.4 5.8h-4.7zm100.1 33.3v-.9c-2.3 1.2-.8.9-32.9.9v-5.3h-2v5.3H68v-6.1c-2.1 1.3-4.8 1.3-7.2 1.3v4.8H50.6c-1.1-1.2-.6-.7-3.2-3.7-.7.7-2.7 2.9-3.4 3.7H26.8V50.4h17.4c1 1.2.6.7 3.3 3.6.7-.7 2.6-2.8 3.3-3.6H63c2.1 0 3.8.4 5.1 1.2v-1.2c11.4 0 13.5-.3 15.9 1.1v-1.1h16.4v1.1c2.4-1.4 4.1-1.1 13.6-1.1v1c2.2-1.2 3.5-1.1 11.4-1V13.6c0-5.6-4.5-10.1-10.1-10.1H14.5C9 3.5 4.5 8 4.5 13.6v23c2-4.6 4.1-9.7 4.8-11.3h8.3c.9 2.1.3.8 1.9 4.4v-4.4h9.7c.6 1.3 2.3 5 2.9 6.3 1.2-2.9 2.1-5 2.6-6.3h24c9.2 0 11.2-.2 13.5 1.1v-1.1h8.4v2c1.6-1.3 3.8-2 6.4-2h5.8c0 .1.4.1.5.1h6.8c.9 2.1.5 1.3 1.8 4.3v-4.3h9.1c1 1.7-.2-.4 2.3 3.9v-3.9h8.4v19.3H113c-1.1-1.9-.3-.5-2.8-4.6v4.6H99.3c-1.3-3.1 0-.1-1.4-3.2h-4c-.9 2.1-.5 1.1-1.3 3.2H87c-2.6 0-4.7-.6-6.2-1.9v1.9h-14c-.1-2.9 0-5.2 0-5.2-.4-.1-.7 0-2.1 0v5.3H36.2v-2.4c-.5 1.2-.6 1.2-1.1 2.4H29c-.8-1.9-.6-1.3-1.1-2.4v2.4H16.8c-.9-2.1-.5-1.1-1.3-3.2h-4c-.9 2.1-.5 1.1-1.3 3.2H4.5v42.7c0 5.5 4.5 10 10.1 10h100.7c5.6 0 10.1-4.5 10.1-10.1v-19c-2.7 1.8-6.9 1.3-14.2 1.3zm7.6-13.5h6.3v-3.1h-6.9c-2.7 0-5 1.4-5 4.3 0 6.9 9 2.7 9 5.7 0 1.1-.9 1.3-1.8 1.3h-6.7v3.1h6.7c1.8 0 3.7-.4 4.7-1.9v-5.4c-2.2-2.9-8.2-.3-8.2-2.8 0-1 1-1.2 1.9-1.2zm-11.9 8.4h-6.8v3.1h6.8c3.1 0 5.5-1.2 5.5-4.6 0-7-9-2.4-9-5.5 0-1.2 1-1.3 1.9-1.3h6.4v-3.1h-7c-2.7 0-4.9 1.4-4.9 4.3 0 6.9 9 2.6 9 5.7-.1 1.1-1.1 1.4-1.9 1.4zM98 56.1v-3H86.4v14.5H98v-3l-8.1-.1v-2.9h8v-3H90V56l8 .1zM86.2 33.5c-.1 0-.3.5-.3 1.6 0 1.3.2 1.6.2 1.7 0 0 .2.1.7.1l1.5-3.5h-.7c-1-.1-1.3 0-1.4.1zm4.3-2.2zm-3.4-3.2c-4.9 0-7.1 2.5-7.1 7.4 0 4.7 2.1 7.1 6.9 7.1h4l1.3-3.2h7.2l1.4 3.2h7.1V31.7l6.5 10.9h5V28.1h-3.5v10.1l-6.1-10.1h-5.3v13.7l-5.9-13.7h-5.2l-4.9 11.4h-1.6c-2.8 0-3.4-1.7-3.4-4.2 0-5 3.3-4.2 6.9-4.1V28l-3.3.1zm8.8 2.5l2.3 5.8h-4.8l2.5-5.8zm-21.2-2.5v14.5h3.5V28.1h-3.5z" fill="#bbb"/></svg>