<svg xmlns="http://www.w3.org/2000/svg" viewBox="0 0 130 100"><path d="M113.7 37.6c0-1.7-1.2-2.5-3.3-2.5h-1v5.2h1c2.1 0 3.3-1 3.3-2.7zm1.5-34.4H14.8c-5.5 0-10 4.5-10 10V87c0 5.5 4.5 10 10 10h100.5c5.5 0 10-4.5 10-10V13.3c0-5.6-4.5-10.1-10.1-10.1zM106 32.3c4.7 0 11.1-.9 11.1 5.1 0 2.6-1.4 4.3-3.9 4.9l5.4 7.2h-4.1l-4.6-6.9h-.5v6.9H106V32.3zm-11.7 0h9.5v2.9h-6.1V39h5.9v3h-5.9v4.6h6.1v2.9h-9.5V32.3zm-14.4 0l4.6 11.6 4.6-11.6h3.7L85.4 50h-1.8l-7.3-17.6h3.6zm-11.7-.6c5.2 0 9.3 4.2 9.3 9.3 0 5.2-4.2 9.3-9.3 9.3-5.2 0-9.3-4.2-9.3-9.3 0-5.1 4.2-9.3 9.3-9.3zM57.9 33v4c-4.2-4.2-9.8-1-9.8 4 0 5.2 5.8 8.1 9.8 4v4c-6.2 3-13.2-1.2-13.2-8 0-6.6 6.9-11.2 13.2-8zM37.6 46.9c2.4 0 4.7-3.2-.7-5.1-3.1-1.2-4.2-2.4-4.2-4.8 0-4.9 6.4-6.6 10.4-3l-1.8 2.3c-2.2-2.4-5.2-1.3-5.2.5 0 .9.6 1.4 2.6 2.2 3.8 1.4 4.9 2.6 4.9 5.4 0 6.2-8.1 7.8-11.8 2.4l2.2-2.1c.7 1.4 2 2.2 3.6 2.2zm-21.3 2.6h-4.9V32.3h4.9c5.5 0 9.2 3.6 9.2 8.6.1 3.9-2.7 8.6-9.2 8.6zm14.2 0h-3.3V32.3h3.3v17.2zm88.1 37.7c0 1.7-1.4 3.1-3.1 3.1h-84c39.7-7.5 80.1-29.1 87.1-33.5v30.4zM20.2 36.6c-1.1-1-2.4-1.4-4.6-1.4h-.9v11.3h.9c2.2 0 3.6-.4 4.6-1.3 1.2-1.1 1.9-2.7 1.9-4.3s-.7-3.2-1.9-4.3z" fill="#bbb"/></svg>