<svg xmlns="http://www.w3.org/2000/svg" viewBox="0 0 130 100"><path d="M105.8 82.4c0 1.4-1 2.4-2.3 2.4-1.4 0-2.3-1.1-2.3-2.4 0-1.4.9-2.4 2.3-2.4 1.3-.1 2.3 1 2.3 2.4zm-65-2.5c-1.5 0-2.3 1.1-2.3 2.4 0 1.4.9 2.4 2.3 2.4s2.3-1 2.3-2.4c0-1.3-.9-2.4-2.3-2.4zm24.6 0c-1.1 0-1.8.7-2 1.8h4c-.2-1.2-.9-1.8-2-1.8zm22.5 0c-1.4 0-2.3 1.1-2.3 2.4 0 1.4.9 2.4 2.3 2.4s2.3-1 2.3-2.4c.1-1.3-.9-2.4-2.3-2.4zm22.2 5.5c0 .1.1.1.1.2s-.1.1-.1.2c-.1.1-.1.2-.1.2-.1.1-.1.1-.2.1-.1.1-.1.1-.2.1s-.1 0-.2-.1c-.1 0-.1-.1-.2-.1-.1-.1-.1-.1-.1-.2-.1-.1-.1-.2-.1-.2 0-.1 0-.2.1-.2 0-.1.1-.2.1-.2.1-.1.1-.1.2-.1.1-.1.2-.1.2-.1.1 0 .2 0 .2.1.1.1.2.1.2.1s0 .1.1.2zm-.5.3c.1 0 .1-.1.2-.1.1-.1.1-.1.1-.2s0-.1-.1-.2c-.1 0-.1-.1-.2-.1h-.3v.9h.2v-.3h.1l.2.3h.2l-.4-.3zm15.7-72.2v73.6c0 5.5-4.5 10-10 10H14.9c-5.5 0-10-4.5-10-10V13.5c0-5.5 4.5-10 10-10h100.4c5.5 0 10 4.5 10 10zM18.2 42.7c0 16 13 29 29 29 5.7 0 11.3-1.7 16-4.8-15.2-12.4-15.1-35.8 0-48.2-4.7-3.1-10.3-4.8-16-4.8-16-.1-29 12.9-29 28.8zM65 65.5C79.8 54 79.7 31.6 65 20c-14.6 11.6-14.7 34 0 45.5zM35.3 81.4c0-1.8-1.2-3-3.1-3.1-1 0-2 .3-2.7 1.4-.5-.9-1.4-1.4-2.6-1.4-.8 0-1.6.3-2.2 1.1v-.9H23v7.7h1.7c0-4-.5-6.3 1.9-6.3 2.1 0 1.7 2.1 1.7 6.3H30c0-3.8-.5-6.3 1.9-6.3 2.1 0 1.7 2.1 1.7 6.3h1.7v-4.8zm9.4-2.8H43v.9c-.6-.7-1.4-1.1-2.4-1.1-2.2 0-3.8 1.7-3.8 4s1.7 4 3.8 4c1.1 0 1.9-.4 2.4-1.1v1h1.7v-7.7zm8.5 5.3c0-3.1-4.8-1.7-4.8-3.2 0-1.2 2.5-1 3.9-.2l.7-1.4c-2-1.3-6.3-1.3-6.3 1.7s4.8 1.7 4.8 3.1c0 1.3-2.8 1.2-4.3.2l-.7 1.3c2.2 1.7 6.7 1.3 6.7-1.5zm7.4 2l-.5-1.4c-.8.4-2.6.9-2.6-.9v-3.5h2.7v-1.5h-2.7v-2.3h-1.7v2.3h-1.6v1.5h1.6v3.5c0 3.7 3.6 3 4.8 2.3zm2.7-2.8H69c0-3.4-1.5-4.7-3.6-4.7-2.2 0-3.8 1.7-3.8 4 0 4.3 4.7 5 7.1 3l-.8-1.3c-1.6 1.3-4.1 1.2-4.6-1zm12.4-4.5c-1-.4-2.4-.4-3.2.9v-.9h-1.7v7.7h1.7V82c0-2.4 2-2.1 2.7-1.8l.5-1.6zm2.2 3.8c0-2.4 2.4-3.2 4.3-1.8l.8-1.4c-2.4-1.9-6.8-.9-6.8 3.1 0 4.1 4.7 5 6.8 3.1l-.8-1.4c-1.9 1.5-4.3.7-4.3-1.6zm14-3.8h-1.7v.9c-1.7-2.3-6.3-1-6.3 2.9 0 4 4.7 5.2 6.3 2.9v1h1.7v-7.7zm7 0c-.5-.3-2.3-.6-3.2.9v-.9H94v7.7h1.7V82c0-2.3 1.9-2.2 2.7-1.8l.5-1.6zm8.4-3.2h-1.7v4c-1.7-2.3-6.3-1.1-6.3 2.9 0 4.1 4.7 5.1 6.3 2.9v1h1.7V75.4zm1.6-15.7v1h.2v-1h.4v-.2h-1v.2h.4zm1.4 25.9c0-.1 0-.2-.1-.3-.1-.1-.1-.2-.2-.2-.1-.1-.2-.1-.2-.2-.1 0-.2-.1-.3-.1-.1 0-.2.1-.3.1-.1.1-.2.1-.2.2l-.2.2c-.1.1-.1.2-.1.3 0 .1 0 .2.1.3 0 .1.1.2.2.2l.2.2c.1.1.2.1.3.1.1 0 .2 0 .3-.1.1-.1.2-.1.2-.2.1-.1.1-.2.2-.2.1-.1.1-.2.1-.3zm.7-26h-.3l-.3.7-.3-.7h-.3v1.1h.2v-.9l.3.7h.2l.3-.7v.9h.2v-1.1zm.9-16.9c0-15.9-13-28.9-29-28.9-5.7 0-11.3 1.7-16 4.8C82 31 82.2 54.5 66.9 66.8c4.7 3.1 10.3 4.8 16 4.8 16 .1 29-12.9 29-28.9z" fill="#bbb"/></svg>