<svg xmlns="http://www.w3.org/2000/svg" viewBox="0 0 130 100"><path d="M103.9 44.9s1.6 7.9 2 9.6h-7.1c.7-1.9 3.4-9.3 3.4-9.3 0 .1.7-1.9 1.1-3.2l.6 2.9zm22.6-32.3v75.2c0 5.7-4.6 10.3-10.3 10.3H13.8C8.1 98 3.5 93.4 3.5 87.8V12.6c0-5.7 4.6-10.3 10.3-10.3h102.5c5.6 0 10.2 4.6 10.2 10.3zM36.1 66.2l13.5-33.1h-9.1l-8.4 22.6-.9-4.6-3-15.2c-.5-2.1-2-2.7-3.9-2.8H10.5l-.1.7c3.4.9 6.4 2.1 9 3.7L27 66.2h9.1zm20.1.1l5.4-33.2H53l-5.4 33.2h8.6zm29.9-10.9c0-3.8-2.3-6.7-7.2-9-3-1.5-4.8-2.5-4.8-4.1 0-1.4 1.6-2.9 4.9-2.9 2.8-.1 4.8.6 6.4 1.3l.8.4 1.2-7.2c-1.7-.7-4.4-1.4-7.7-1.4-8.5 0-14.4 4.5-14.5 11-.1 4.8 4.3 7.4 7.5 9 3.3 1.6 4.4 2.7 4.4 4.1 0 2.2-2.7 3.2-5.1 3.2-3.4 0-5.3-.5-8.1-1.8l-1.1-.5-1.2 7.5c2 .9 5.7 1.7 9.6 1.8 9 0 14.8-4.5 14.9-11.4zm30.2 10.9l-6.9-33.2h-6.6c-2 0-3.6.6-4.5 2.8L85.5 66.3h9s1.5-4.1 1.8-5h11c.3 1.2 1 5 1 5h8z" fill="#bbb"/></svg>